<svg xmlns="http://www.w3.org/2000/svg" viewBox="0 0 24 24">
  <path d="M7.15 17.15c1.15 0 2.08-.3 2.78-.87a2.84 2.84 0 0 0 1.05-2.3c0-.6-.15-1.12-.45-1.55-.3-.44-.75-.76-1.36-.98.49-.22.88-.54 1.19-.96.3-.42.45-.87.45-1.37a2.8 2.8 0 0 0-.97-2.25 4.05 4.05 0 0 0-2.7-.82 4.26 4.26 0 0 0-1.8.37c-.54.26-.97.6-1.27 1.05A2.64 2.64 0 0 0 3.6 9h2.14c0-.36.14-.65.42-.88.28-.22.62-.34 1.03-.34.46 0 .81.12 1.07.37s.4.58.4 1.01c0 .45-.14.82-.4 1.09-.26.27-.67.4-1.21.4H5.92v1.68h1.13c1.19 0 1.78.54 1.78 1.62 0 .45-.14.8-.43 1.07s-.69.4-1.2.4c-.45 0-.82-.12-1.12-.38a1.24 1.24 0 0 1-.46-1H3.47c0 .94.35 1.7 1.03 2.26a4 4 0 0 0 2.65.86zm8.88-.15c.95 0 1.8-.22 2.55-.65a4.44 4.44 0 0 0 1.75-1.82c.41-.78.62-1.68.62-2.68v-.5c0-1-.21-1.9-.63-2.69a4.48 4.48 0 0 0-1.76-1.82 5.05 5.05 0 0 0-2.55-.65h-3.32V17h3.34zM16 15.21H14.9V8h1.1c.88 0 1.54.28 2 .85.45.56.68 1.4.68 2.5v.57a3.86 3.86 0 0 1-.7 2.44c-.46.57-1.13.85-2 .85z"/>
</svg>
