<?xml version="1.0" standalone="no"?><!DOCTYPE svg PUBLIC "-//W3C//DTD SVG 1.1//EN" "http://www.w3.org/Graphics/SVG/1.1/DTD/svg11.dtd"><svg t="1708254236237" class="icon" viewBox="0 0 1024 1024" version="1.1" xmlns="http://www.w3.org/2000/svg" p-id="28813" xmlns:xlink="http://www.w3.org/1999/xlink" width="48" height="48"><path d="M512.000028 0C227.555584 0 2.8e-05 227.555556 2.8e-05 512c0 284.444444 227.555556 512 512 512 284.444444 0 512-227.555556 512-512C1024.000028 227.555556 796.444473 0 512.000028 0L512.000028 0zM830.577806 756.622222c-5.688889 5.688889-56.888889-34.133333-56.888889-34.133333l-22.755556 34.133333c0 0 51.2 39.822222 45.511111 45.511111-68.266667 68.266667-159.288889 113.777778-267.377778 113.777778 0 0 0-79.644444 0-79.644444l-34.133333 0c0 0 0 51.2 0 79.644444-85.333333-5.688889-164.977778-34.133333-227.555556-85.333333C256.000028 819.2 238.933362 807.822222 227.555584 796.444444c-5.688889-5.688889 39.822222-45.511111 39.822222-45.511111l-28.444444-28.444444c0 0-34.133333 22.755556-51.2 34.133333C147.91114 688.355556 113.777806 614.4 113.777806 529.066667c0 0 73.955556 0 73.955556 0l0-39.822222c0 0-45.511111 0-73.955556 0 5.688889-79.644444 39.822222-164.977778 79.644444-227.555556 0-5.688889 45.511111 39.822222 45.511111 39.822222l28.444444-39.822222c0 0-34.133333-28.444444-39.822222-34.133333C301.51114 159.288889 403.91114 113.777778 512.000028 113.777778c108.088889 0 210.488889 45.511111 284.444444 113.777778-11.377778 5.688889-51.2 39.822222-51.2 39.822222l28.444444 34.133333c0 0 51.2-39.822222 51.2-34.133333C876.088917 329.955556 910.222251 409.6 910.222251 494.933333c-17.066667 0-79.644444 0-79.644444 0l0 39.822222c0 0 79.644444-5.688889 79.644444 0C910.222251 614.4 881.777806 694.044444 830.577806 756.622222L830.577806 756.622222zM512.000028 147.911111 420.977806 472.177778c0 0-39.822222 136.533333 85.333333 136.533333 0 0 125.155556 0 85.333333-130.844444L512.000028 147.911111 512.000028 147.911111zM512.000028 147.911111" fill="#e6e6e6" p-id="28814"></path></svg>