<?xml version="1.0" standalone="no"?><!DOCTYPE svg PUBLIC "-//W3C//DTD SVG 1.1//EN" "http://www.w3.org/Graphics/SVG/1.1/DTD/svg11.dtd"><svg t="1708254030543" class="icon" viewBox="0 0 1024 1024" version="1.1" xmlns="http://www.w3.org/2000/svg" p-id="7941" xmlns:xlink="http://www.w3.org/1999/xlink" width="48" height="48"><path d="M512.1 98.2c-171.9 0-311.3 141.8-311.3 316.7 0 36.3 6.1 72.4 18.1 106.7 27.5 78.3 118.6 210.6 273.2 397.2 1 1.2 2.2 2.4 3.4 3.4 11 9.1 27.4 7.6 36.5-3.4 154.4-186.3 245.4-318.5 273-396.5 11.9-33.5 18.4-69.7 18.4-107.4C823.4 240 684 98.2 512.1 98.2z m231.3 422.3c-22.1 62.4-91.9 163.2-215.3 312.2-7.3 8.8-20.4 10.1-29.2 2.7-1-0.8-1.9-1.7-2.7-2.7-123.8-149.3-194.6-250.2-216.6-312.8-9.6-27.4-16.5-56.3-16.5-85.3 0-139.9 111.5-270.3 249-270.3s249 130.4 249 270.3c0 30.1-8.2 59-17.7 85.9z" p-id="7942" fill="#e6e6e6"></path><path d="M512.1 520.5c57.3 0 103.8-47.3 103.8-105.6s-46.4-105.5-103.8-105.5-103.8 47.2-103.8 105.5 46.5 105.6 103.8 105.6z" p-id="7943" fill="#e6e6e6"></path></svg>