<svg viewBox="0 0 24 24" xmlns="http://www.w3.org/2000/svg">
  <path d="m3.52 9.93 3.55 3.55a2 2 0 0 1 1.41-1.41L4.93 8.52a2 2 0 0 1-1.41 1.41Zm15.55 5.55-4.55-4.55a2 2 0 0 0 1.41-1.41l4.55 4.55a2 2 0 0 0-1.41 1.41Zm-7-5.96a2 2 0 0 0 1.41 1.41l-2.55 2.55a2 2 0 0 0-1.41-1.41l2.55-2.55Z"/>
  <path d="M18 16a3 3 0 1 1 6 0 3 3 0 0 1-6 0Zm3-1a1 1 0 1 0 0 2 1 1 0 0 0 0-2ZM11 9a3 3 0 1 1 6 0 3 3 0 0 1-6 0Zm3-1a1 1 0 1 0 0 2 1 1 0 0 0 0-2ZM6 14a3 3 0 1 1 6 0 3 3 0 0 1-6 0Zm3-1a1 1 0 1 0 0 2 1 1 0 0 0 0-2ZM0 8a3 3 0 1 1 6 0 3 3 0 0 1-6 0Zm3-1a1 1 0 1 0 0 2 1 1 0 0 0 0-2Z"/>
</svg>
