<?xml version="1.0" standalone="no"?><!DOCTYPE svg PUBLIC "-//W3C//DTD SVG 1.1//EN" "http://www.w3.org/Graphics/SVG/1.1/DTD/svg11.dtd"><svg t="1706233893307" class="icon" viewBox="0 0 1024 1024" version="1.1" xmlns="http://www.w3.org/2000/svg" p-id="20166" width="28" height="28" xmlns:xlink="http://www.w3.org/1999/xlink"><path d="M563.2 202.752c0-41.984 33.792-76.288 76.288-76.288s76.288 33.792 76.288 76.288-33.792 76.288-76.288 76.288S563.2 244.736 563.2 202.752z m0 0c0-41.984 33.792-76.288 76.288-76.288s76.288 33.792 76.288 76.288-33.792 76.288-76.288 76.288S563.2 244.736 563.2 202.752zM563.2 821.248c0-41.984 33.792-76.288 76.288-76.288s76.288 33.792 76.288 76.288c0 41.984-33.792 76.288-76.288 76.288s-76.288-33.792-76.288-76.288zM563.2 409.088c0-41.984 33.792-76.288 76.288-76.288s76.288 33.792 76.288 76.288-33.792 76.288-76.288 76.288S563.2 451.072 563.2 409.088zM563.2 614.912c0-41.984 33.792-76.288 76.288-76.288s76.288 33.792 76.288 76.288-33.792 76.288-76.288 76.288-76.288-33.792-76.288-76.288z" p-id="20167" fill="#dbdbdb"></path><path d="M308.224 202.752c0-41.984 33.792-76.288 76.288-76.288S460.8 160.256 460.8 202.752s-33.792 76.288-76.288 76.288-76.288-34.304-76.288-76.288z m0 0c0-41.984 33.792-76.288 76.288-76.288S460.8 160.256 460.8 202.752s-33.792 76.288-76.288 76.288-76.288-34.304-76.288-76.288zM308.224 821.248c0-41.984 33.792-76.288 76.288-76.288S460.8 779.264 460.8 821.248s-33.792 76.288-76.288 76.288-76.288-33.792-76.288-76.288zM308.224 409.088c0-41.984 33.792-76.288 76.288-76.288S460.8 366.592 460.8 409.088s-33.792 76.288-76.288 76.288-76.288-34.304-76.288-76.288zM308.224 614.912c0-41.984 33.792-76.288 76.288-76.288S460.8 572.928 460.8 614.912 427.008 691.2 384.512 691.2s-76.288-33.792-76.288-76.288z" p-id="20168" fill="#dbdbdb"></path></svg>