<?xml version="1.0" standalone="no"?><!DOCTYPE svg PUBLIC "-//W3C//DTD SVG 1.1//EN" "http://www.w3.org/Graphics/SVG/1.1/DTD/svg11.dtd"><svg t="1708254197048" class="icon" viewBox="0 0 1913 1024" version="1.1" xmlns="http://www.w3.org/2000/svg" p-id="25639" xmlns:xlink="http://www.w3.org/1999/xlink" width="89.671875" height="48"><path d="M2.047861 136.56569v750.882273a133.725307 133.725307 0 0 0 136.524049 136.52405h1638.288597a136.52405 136.52405 0 0 0 136.52405-136.52405V136.56569a133.725307 133.725307 0 0 0-136.52405-136.52405h-1638.288597a133.247473 133.247473 0 0 0-136.524049 136.52405z m1638.288596 68.262024a65.121972 65.121972 0 0 1 68.262025 68.262025v477.834174a65.121972 65.121972 0 0 1-68.262025 68.262025h-136.52405V546.137839h-204.786074v273.048099h-204.786075V409.613789h-204.786074v409.572149h-273.0481V546.137839h-204.786074v273.048099h-204.786075a65.121972 65.121972 0 0 1-68.262025-68.262025V273.089739a60.753202 60.753202 0 0 1 68.262025-68.262025h1433.502522z" fill="#e6e6e6" p-id="25640"></path></svg>