<?xml version="1.0" standalone="no"?><!DOCTYPE svg PUBLIC "-//W3C//DTD SVG 1.1//EN" "http://www.w3.org/Graphics/SVG/1.1/DTD/svg11.dtd"><svg t="1708254114659" class="icon" viewBox="0 0 1513 1024" version="1.1" xmlns="http://www.w3.org/2000/svg" p-id="18519" xmlns:xlink="http://www.w3.org/1999/xlink" width="70.921875" height="48"><path d="M1380.173913 44.521739c-75.686957 0-133.565217 57.878261-133.565217 133.565218 0 26.713043 8.904348 48.973913 22.260869 71.234782L952.765217 712.347826 681.182609 218.156522c17.808696-22.26087 31.165217-53.426087 31.165217-84.591305 0-75.686957-57.878261-133.565217-133.565217-133.565217s-133.565217 57.878261-133.565218 133.565217c0 13.356522 4.452174 26.713043 4.452174 40.069566l-293.843478 320.556521c-4.452174-4.452174-13.356522-4.452174-22.26087-4.452174-75.686957 0-133.565217 57.878261-133.565217 133.565218s57.878261 133.565217 133.565217 133.565217 133.565217-57.878261 133.565218-133.565217c0-40.069565-17.808696-75.686957-44.521739-102.4l267.130434-293.843478c22.26087 26.713043 53.426087 40.069565 89.043479 40.069565 17.808696 0 35.617391-4.452174 48.973913-8.904348l276.034782 503.095652C845.913043 774.678261 801.391304 828.104348 801.391304 890.434783c0 75.686957 57.878261 133.565217 133.565218 133.565217s133.565217-57.878261 133.565217-133.565217c0-53.426087-31.165217-97.947826-75.686956-120.208696l325.008695-476.382609c17.808696 13.356522 40.069565 17.808696 62.330435 17.808696 75.686957 0 133.565217-57.878261 133.565217-133.565217s-57.878261-133.565217-133.565217-133.565218z" fill="#e6e6e6" p-id="18520"></path></svg>