<?xml version="1.0" standalone="no"?><!DOCTYPE svg PUBLIC "-//W3C//DTD SVG 1.1//EN" "http://www.w3.org/Graphics/SVG/1.1/DTD/svg11.dtd"><svg t="1708254049491" class="icon" viewBox="0 0 1024 1024" version="1.1" xmlns="http://www.w3.org/2000/svg" p-id="8951" xmlns:xlink="http://www.w3.org/1999/xlink" width="48" height="48"><path d="M718.336 836.864l-430.848-93.7984a102.4 102.4 0 1 1-117.1456-156.8768L176.128 303.104A102.4 102.4 0 1 1 302.08 173.1072l421.7856 62.3616a102.4 102.4 0 1 1 120.9344 136.704l9.6768 350.7712a102.4 102.4 0 1 1-136.0384 113.92z m56.32-17.6128a44.3392 44.3392 0 1 0 44.544-44.544 44.4416 44.4416 0 0 0-44.3904 44.4416z m-49.8176-40.2432a102.7584 102.7584 0 0 1 71.168-59.648l-9.6256-349.2352a102.4 102.4 0 0 1-67.7376-76.8l-415.3344-61.44a102.4 102.4 0 0 1-69.0688 70.9632l-5.7856 280.1664A102.4 102.4 0 0 1 307.2 682.6496v5.12zM160.4096 682.6496A44.3392 44.3392 0 1 0 204.8 638.2592a44.3904 44.3904 0 0 0-44.3904 44.3904z m614.4-409.6A44.3392 44.3392 0 1 0 819.2 228.608a44.3904 44.3904 0 0 0-44.3904 44.3904z m-614.4-68.3008A44.3392 44.3392 0 1 0 204.8 160.3584a44.3904 44.3904 0 0 0-44.3904 44.3904z" p-id="8952" fill="#e6e6e6"></path></svg>